<svg xmlns="http://www.w3.org/2000/svg" width="34.635" height="270.682" viewBox="0 0 34.635 270.682">
  <g id="signiture-ci" transform="translate(-1844.682 -769.318)">
    <g id="logoType" transform="translate(1844.682 989.318) rotate(-90)">
      <path id="패스_1" data-name="패스 1" d="M81.954,101.024V123.2a11,11,0,0,1-3.688,8.8,14.051,14.051,0,0,1-9.515,3.18,13.6,13.6,0,0,1-9.34-3.18,11.114,11.114,0,0,1-3.608-8.8V101.024h5.619V123.2a6.857,6.857,0,0,0,7.329,7.492,7.71,7.71,0,0,0,5.5-1.955,7.221,7.221,0,0,0,2.081-5.537V101.024Z" transform="translate(-55.804 -100.539)" fill="#11378d"/>
      <path id="패스_2" data-name="패스 2" d="M102.845,123.84l.046.139a10.382,10.382,0,0,1-3.306,8.22q-3.4,3.134-9.179,3.133a12.348,12.348,0,0,1-9.527-3.966,14.375,14.375,0,0,1-3.654-10.138v-6.406a14.541,14.541,0,0,1,3.608-10.138,12.089,12.089,0,0,1,9.41-3.988q5.942,0,9.354,3.028a10.284,10.284,0,0,1,3.318,8.3l-.047.139H97.435A6.927,6.927,0,0,0,95.608,107a7.365,7.365,0,0,0-5.364-1.792,6.384,6.384,0,0,0-5.422,2.717,11.262,11.262,0,0,0-2,6.856v6.452a11.2,11.2,0,0,0,2.035,6.9,6.559,6.559,0,0,0,5.549,2.717,6.3,6.3,0,0,0,7.029-7.007Z" transform="translate(-45.526 -100.696)" fill="#11378d"/>
      <path id="패스_3" data-name="패스 3" d="M125.121,125.3h.139l4.948-24.277h5.919l-8,33.665h-5.11l-6.728-23.954h-.138L109.4,134.689h-5.133l-7.976-33.665h5.9l4.994,24.253h.139l6.4-24.253h4.948Z" transform="translate(-36.381 -100.539)" fill="#11378d"/>
      <path id="패스_4" data-name="패스 4" d="M152.865,121.043a14.231,14.231,0,0,1-3.873,10.231,13.291,13.291,0,0,1-10.068,4.057,12.837,12.837,0,0,1-9.827-4.057,14.394,14.394,0,0,1-3.793-10.231v-6.058a14.435,14.435,0,0,1,3.781-10.219,12.811,12.811,0,0,1,9.839-4.069,13.28,13.28,0,0,1,10.057,4.069,14.214,14.214,0,0,1,3.884,10.219Zm-5.617-6.1A10.471,10.471,0,0,0,145,108.025a7.485,7.485,0,0,0-6.08-2.705,7.061,7.061,0,0,0-5.861,2.705,10.8,10.8,0,0,0-2.14,6.913v6.1a10.9,10.9,0,0,0,2.15,6.971,7.062,7.062,0,0,0,5.851,2.715,7.477,7.477,0,0,0,6.092-2.705,10.611,10.611,0,0,0,2.231-6.982Z" transform="translate(-22.46 -100.696)" fill="#11378d"/>
      <path id="패스_5" data-name="패스 5" d="M153.58,120.723v13.966h-5.619V101.024h11.584q5.618,0,8.694,2.542a8.9,8.9,0,0,1,3.075,7.261,7.511,7.511,0,0,1-1.353,4.5,9.278,9.278,0,0,1-3.942,3.017,7.117,7.117,0,0,1,4.1,2.936,9.406,9.406,0,0,1,1.261,5.04v2.8a11.314,11.314,0,0,0,.37,2.89,4.12,4.12,0,0,0,1.225,2.15v.533H167.2a3.691,3.691,0,0,1-1.179-2.382,20.72,20.72,0,0,1-.255-3.236v-2.705a5.64,5.64,0,0,0-1.492-4.117,5.416,5.416,0,0,0-4.058-1.526Zm0-4.509h5.665q3.374,0,4.925-1.295a4.863,4.863,0,0,0,1.549-3.954,5.23,5.23,0,0,0-1.527-3.988,6.55,6.55,0,0,0-4.646-1.444H153.58Z" transform="translate(-11.59 -100.539)" fill="#11378d"/>
      <path id="패스_6" data-name="패스 6" d="M176.69,120.122h-2.751v14.567H168.32V101.024h5.619v14.265h2.2l10.937-14.265h6.589l.07.115-12.624,15.814,13.664,17.735h-7.1Z" transform="translate(-1.823 -100.539)" fill="#11378d"/>
      <path id="패스_7" data-name="패스 7" d="M206.819,126.2a4.423,4.423,0,0,0-1.49-3.445,13.74,13.74,0,0,0-5.284-2.4,22.527,22.527,0,0,1-8.381-3.942,7.872,7.872,0,0,1-2.948-6.37,8.273,8.273,0,0,1,3.238-6.7,12.753,12.753,0,0,1,8.324-2.635A12.615,12.615,0,0,1,209,103.62a8.964,8.964,0,0,1,3.156,7.226l-.046.139H206.7a5.38,5.38,0,0,0-1.768-4.232,6.824,6.824,0,0,0-4.706-1.572,6.473,6.473,0,0,0-4.382,1.341,4.39,4.39,0,0,0-1.538,3.469,3.839,3.839,0,0,0,1.688,3.2,18.294,18.294,0,0,0,5.6,2.393,19.572,19.572,0,0,1,8.069,4.035,8.486,8.486,0,0,1,2.775,6.532,7.972,7.972,0,0,1-3.282,6.681,13.877,13.877,0,0,1-8.626,2.5,14.967,14.967,0,0,1-8.947-2.729,8.637,8.637,0,0,1-3.7-7.7l.046-.139h5.41a5.3,5.3,0,0,0,2.092,4.567,8.36,8.36,0,0,0,5.1,1.537,7.5,7.5,0,0,0,4.636-1.259A4.066,4.066,0,0,0,206.819,126.2Z" transform="translate(7.562 -100.696)" fill="#11378d"/>
    </g>
    <g id="symbol" transform="translate(1845 1006)">
      <g id="그룹_2" data-name="그룹 2">
        <path id="패스_8" data-name="패스 8" d="M95.165,378.377v9.154a6.538,6.538,0,0,1-13.077,0v-9.154H79.473v9.154a9.154,9.154,0,0,0,18.308,0v-9.154Z" transform="translate(-79.473 -378.377)" fill="#11378d"/>
        <path id="패스_9" data-name="패스 9" d="M112.17,378.377v9.154a1.307,1.307,0,0,1-2.613,0v-9.154h-2.616v9.154a3.923,3.923,0,0,0,7.845,0v-9.154Z" transform="translate(-101.708 -378.377)" fill="#11378d"/>
      </g>
      <g id="그룹_3" data-name="그룹 3" transform="translate(15.692)">
        <path id="패스_10" data-name="패스 10" d="M180.18,380.992h-9.154a6.539,6.539,0,0,0,0,13.077h9.154v2.615h-9.154a9.154,9.154,0,1,1,0-18.308h9.154Z" transform="translate(-161.872 -378.377)" fill="#11378d"/>
        <path id="패스_11" data-name="패스 11" d="M202.5,408.459h-9.154a1.307,1.307,0,0,0,0,2.613H202.5v2.615h-9.154a3.923,3.923,0,0,1,0-7.845H202.5Z" transform="translate(-184.188 -400.613)" fill="#11378d"/>
      </g>
      <g id="그룹_4" data-name="그룹 4" transform="translate(15.692 15.692)">
        <path id="패스_12" data-name="패스 12" d="M164.488,479.085v-9.154a6.538,6.538,0,1,1,13.077,0v9.154h2.615v-9.154a9.154,9.154,0,0,0-18.308,0v9.154Z" transform="translate(-161.872 -460.777)" fill="#11378d"/>
        <path id="패스_13" data-name="패스 13" d="M191.954,501.4v-9.154a1.307,1.307,0,0,1,2.613,0V501.4h2.616v-9.154a3.923,3.923,0,0,0-7.845,0V501.4Z" transform="translate(-184.108 -483.092)" fill="#11378d"/>
      </g>
      <g id="그룹_5" data-name="그룹 5" transform="translate(0 15.692)">
        <path id="패스_14" data-name="패스 14" d="M79.473,476.469h9.154a6.538,6.538,0,0,0,0-13.077H79.473v-2.615h9.154a9.154,9.154,0,1,1,0,18.308H79.473Z" transform="translate(-79.473 -460.777)" fill="#11378d"/>
        <path id="패스_15" data-name="패스 15" d="M79.473,493.474h9.154a1.307,1.307,0,0,0,0-2.614H79.473v-2.615h9.154a3.923,3.923,0,0,1,0,7.845H79.473Z" transform="translate(-79.473 -483.012)" fill="#11378d"/>
      </g>
    </g>
  </g>
</svg>
